<svg xmlns="http://www.w3.org/2000/svg" viewBox="0 0 3333 2514" shape-rendering="geometricPrecision" text-rendering="geometricPrecision" image-rendering="optimizeQuality" fill-rule="evenodd" clip-rule="evenodd"><path d="M174 1205h216v-66c0-117 48-224 125-301s184-125 301-125h804c-4-7-6-16-6-25V395c-33-10-63-27-87-51-36-36-59-87-59-142s22-106 59-142c36-36 87-59 142-59s106 22 142 59c36 36 59 87 59 142s-22 106-59 142c-24 24-53 42-87 51v293c0 9-2 17-6 25h804c117 0 224 48 301 125s125 184 125 301v66h209c48 0 91 20 123 51 31 31 51 75 51 123v520c0 48-20 91-51 123-31 31-75 51-123 51h-209v15c0 117-48 224-125 301s-184 125-301 125H815c-117 0-224-48-301-125s-125-184-125-301v-15H173c-48 0-91-20-123-51-31-31-51-75-51-123v-520c0-48 20-91 51-123 31-31 75-51 123-51zm1110 799c-22-17-23-45-2-63s56-18 78-1c106 81 209 119 311 118s207-42 314-119c23-16 58-15 78 3s19 46-4 63c-127 91-256 140-387 141-132 1-261-45-389-142zm-185-803c31 0 60 6 88 17 28 12 53 29 74 50s38 46 50 75c11 27 17 57 17 88s-6 60-17 88c-12 28-29 54-50 75s-46 38-75 50c-27 11-57 17-88 17s-60-6-88-17c-28-12-54-29-75-50s-38-46-50-75c-11-27-17-57-17-88s6-60 17-88c12-28 29-54 50-75s46-38 75-50c27-11 57-17 88-17zm62 80c-19-8-40-12-62-12s-43 4-62 12c-20 8-37 20-52 35s-27 33-35 52-12 40-12 62 4 43 12 62c8 20 20 37 35 52s33 27 52 35 40 12 62 12 43-4 62-12c20-8 37-20 52-35s27-33 35-52 12-40 12-62-4-43-12-62c-8-20-20-37-35-52s-33-27-52-35zm1080-80c31 0 60 6 88 17 28 12 53 29 74 50s38 46 50 75c11 27 17 57 17 88s-6 60-17 88c-12 28-29 54-50 75s-46 38-75 50c-27 11-57 17-88 17s-60-6-88-17c-28-12-54-29-75-50s-38-46-50-75c-11-27-17-57-17-88s6-60 17-88c12-28 29-54 50-75s46-38 75-50c27-11 57-17 88-17zm62 80c-19-8-40-12-62-12s-43 4-62 12c-20 8-37 20-52 35s-27 33-35 52-12 40-12 62 4 43 12 62c8 20 20 37 35 52s33 27 52 35 40 12 62 12 43-4 62-12c20-8 37-20 52-35s27-33 35-52 12-40 12-62-4-43-12-62c-8-20-20-37-35-52s-33-27-52-35zm-1845-42v848c0 99 40 188 105 253s155 105 253 105h1707c99 0 188-40 253-105s105-155 105-253v-948c0-99-40-188-105-253s-155-105-253-105H816c-99 0-188 40-253 105s-105 155-105 253v100zm-68 34H174c-29 0-56 12-75 31s-31 46-31 75v520c0 29 12 56 31 75s46 31 75 31h216v-731zm2770 0h-209v731h209c29 0 56-12 75-31s31-46 31-75v-520c0-29-12-56-31-75s-46-31-75-31z" fill-rule="nonzero"/></svg>